<?xml version="1.0" encoding="UTF-8" standalone="no"?>
<svg xmlns="http://www.w3.org/2000/svg" height="301.35" width="1e3" version="1.0" viewBox="0 0 1000 301.35401">
 <path style="fill:#f90;fill-rule:evenodd" d="m620.38 235.67c-58.112 42.833-142.34 65.686-214.86 65.686-101.68 0-193.23-37.609-262.48-100.16-5.4412-4.9188-.5659-11.622 5.9635-7.7918 74.74 43.486 167.15 69.647 262.61 69.647 64.38 0 135.2-13.32 200.32-40.961 9.8376-4.1788 18.065 6.4423 8.4447 13.581"/>
 <path style="fill:#f90;fill-rule:evenodd" d="m644.54 208.03c-7.4-9.4894-49.101-4.4835-67.819-2.2635-5.7024.69648-6.5729-4.2659-1.4365-7.8353 33.213-23.375 87.712-16.628 94.067-8.7929 6.3553 7.8788-1.6541 62.508-32.865 88.582-4.7882 4.0047-9.3588 1.8718-7.2259-3.4388 7.0082-17.499 22.722-56.719 15.279-66.252"/>
 <path style="fill-rule:evenodd;fill:#fff" d="m578.03 32.908v-22.722c0-3.4388 2.6118-5.7459 5.7459-5.7459h101.73c3.2647 0 5.8765 2.3506 5.8765 5.7459v19.458c-.0435 3.2647-2.7859 7.5306-7.6612 14.278l-52.714 75.262c19.588-.47879 40.265 2.4376 58.025 12.449 4.0047 2.2635 5.0929 5.5718 5.3976 8.8365v24.246c0 3.3082-3.6565 7.1823-7.487 5.18-31.298-16.411-72.868-18.195-107.47.17413-3.5259 1.9153-7.2259-1.9153-7.2259-5.2235v-23.027c0-3.7.0435-10.012 3.7435-15.627l61.072-87.581h-53.149c-3.2647 0-5.8765-2.307-5.8765-5.7024"/>
 <path style="fill-rule:evenodd;fill:#fff" d="m206.94 174.68h-30.949c-2.96-.21762-5.3106-2.4376-5.5282-5.2671v-158.84c0-3.1776 2.6553-5.7024 5.9635-5.7024h28.86c3.0036.1305 5.3976 2.4376 5.6153 5.3106v20.764h.56588c7.53-20.059 21.67-29.418 40.74-29.418 19.371 0 31.472 9.3588 40.178 29.426 7.487-20.067 24.507-29.426 42.746-29.426 12.972 0 27.162 5.3541 35.825 17.368 9.7941 13.364 7.7917 32.778 7.7917 49.798l-.0435 100.25c0 3.1776-2.6553 5.7458-5.9635 5.7458h-30.906c-3.0906-.21762-5.5717-2.6988-5.5717-5.7458v-84.186c0-6.7035.60937-23.419-.8706-29.774-2.307-10.665-9.2282-13.668-18.195-13.668-7.487 0-15.322 5.0059-18.5 13.015-3.1776 8.0094-2.8729 21.416-2.8729 30.427v84.186c0 3.1776-2.6553 5.7458-5.9635 5.7458h-30.906c-3.1341-.21762-5.5718-2.6988-5.5718-5.7458l-.0435-84.186c0-17.716 2.9164-43.791-19.066-43.791-22.244 0-21.373 25.421-21.373 43.791v84.186c0 3.1776-2.6553 5.7458-5.9635 5.7458"/>
 <path style="fill-rule:evenodd;fill:#fff" d="m778.96 1.5237c45.923 0 70.779 39.438 70.779 89.583 0 48.448-27.467 86.885-70.779 86.885-45.096 0-69.647-39.438-69.647-88.582 0-49.449 24.855-87.886 69.647-87.886m.26116 32.429c-22.809 0-24.246 31.08-24.246 50.451 0 19.414-.3047 60.854 23.985 60.854 23.985 0 25.116-33.431 25.116-53.802 0-13.407-.56589-29.426-4.6141-42.136-3.4824-11.056-10.403-15.366-20.241-15.366"/>
 <path style="fill-rule:evenodd;fill:#fff" d="m909.28 174.68h-30.819c-3.0906-.21762-5.5718-2.6988-5.5718-5.7458l-.0435-158.88c.26118-2.9165 2.8294-5.18 5.9635-5.18h28.686c2.6988.1305 4.9188 1.9588 5.5282 4.44v24.289h.56585c8.66-21.715 20.8-32.075 42.17-32.075 13.886 0 27.424 5.0059 36.129 18.718 8.1 12.71 8.1 34.083 8.1 49.449v99.987c-.34822 2.7858-2.9165 5.0058-5.9635 5.0058h-31.036c-2.8294-.21762-5.18-2.307-5.4847-5.0058v-86.275c0-17.368 2.0023-42.789-19.371-42.789-7.5306 0-14.452 5.0494-17.891 12.711-4.3529 9.7071-4.9188 19.371-4.9188 30.079v85.535c-.0435 3.1776-2.7423 5.7458-6.0506 5.7458"/>
 <path style="fill-rule:evenodd;fill:#fff" d="m496.93 98.812c0 12.058.3047 22.113-5.7894 32.821-4.9188 8.7059-12.754 14.06-21.416 14.06-11.884 0-18.848-9.0541-18.848-22.418 0-26.379 23.636-31.167 46.054-31.167v6.7035m31.211 75.436c-2.0459 1.8282-5.0059 1.9588-7.3129.74001-10.273-8.5318-12.145-12.493-17.76-20.633-16.976 17.325-29.034 22.505-51.016 22.505-26.074 0-46.315-16.062-46.315-48.23 0-25.116 13.581-42.223 32.995-50.581 16.802-7.4 40.265-8.7059 58.199-10.752v-4.0047c0-7.3565.56589-16.062-3.787-22.418-3.7435-5.7024-10.969-8.053-17.368-8.053-11.796 0-22.287 6.0506-24.855 18.587-.52235 2.7859-2.5682 5.5282-5.3976 5.6588l-29.99-3.224c-2.52-.566-5.35-2.612-4.61-6.486 6.87-36.39 39.78-47.36 69.21-47.36 15.061 0 34.736 4.0047 46.62 15.409 15.061 14.06 13.625 32.821 13.625 53.236v48.231c0 14.495 6.007 20.851 11.666 28.686 1.9588 2.7858 2.3941 6.1376-.13071 8.227-6.3118 5.2671-17.542 15.061-23.724 20.546l-.0435-.0872"/>
 <path style="fill-rule:evenodd;fill:#fff" d="m91.194 98.812c0 12.058.30468 22.113-5.7894 32.821-4.9188 8.7059-12.711 14.06-21.416 14.06-11.884 0-18.805-9.0541-18.805-22.418 0-26.379 23.636-31.167 46.011-31.167v6.7035m31.211 75.436c-2.0459 1.8282-5.0059 1.9588-7.313.74001-10.273-8.5318-12.101-12.493-17.76-20.633-16.982 17.32-28.996 22.5-51.022 22.5-26.03 0-46.315-16.06-46.315-48.23-.0000021412-25.12 13.625-42.224 32.995-50.582 16.803-7.4 40.265-8.705 58.199-10.751v-4.0047c0-7.3565.56588-16.062-3.7435-22.418-3.7871-5.7024-11.013-8.053-17.368-8.053-11.796 0-22.331 6.0506-24.899 18.587-.52236 2.7859-2.5682 5.5282-5.3541 5.6588l-30.035-3.221c-2.5246-.566-5.3105-2.612-4.614-6.486 6.921-36.39 39.786-47.36 69.212-47.36 15.061 0 34.736 4.0047 46.62 15.409 15.061 14.06 13.625 32.821 13.625 53.236v48.231c0 14.495 6.0071 20.851 11.666 28.686 2.0023 2.7858 2.4376 6.1376-.0871 8.227-6.3118 5.2671-17.542 15.061-23.724 20.546l-.087-.0872"/>
</svg>
