<svg xmlns="http://www.w3.org/2000/svg" height="786.66" width="786.66" version="1.1" viewBox="0 0 786.66029 786.6569">
 <path style="fill:#31343d" d="m376.52 670.58c-30.639-13.465-14.605-65.379 18.798-57.82 35.816 2.1081 33.009 62.519-3.321 60.75-5.3176.51-10.825-.12302-15.477-2.93zm-120.17-31.47c-34.124-11.322-19.146-66.978 15.932-59.659 29.362 2.8948 35.711 47.566 8.6358 58.61-7.6255 3.6272-16.652 3.9006-24.568 1.049zm247.08.36295c-31.172-9.1698-24.616-60.781 8.6463-60.204 27.71-3.2791 44.029 35.224 23.084 53.163-8.2056 7.9769-20.915 11.036-31.73 7.0407zm-334.24-89.33c-28.042-6.1635-30.304-49.252-3.7111-58.876 25.988-11.904 54.046 20.084 38.902 44.309-6.5307 12.457-22.064 17.071-35.191 14.567zm425.66-.60502c-27.596-6.5474-29.286-50.02-2.1482-58.427 25.784-11.674 53.553 20.936 37.845 44.628-6.7268 11.875-22.706 18.487-35.697 13.799zm-335.48-50.69c-26.42-5.0911-32.384-45.341-7.7045-57.191 30.496-21.195 62.307-40.444 92.748-61.711 6.7144-78.87 8.8461-158.14 17.066-236.86 3.3204-30.591 55.474-30.223 58.364.38974 8.2857 85.342 12.233 171.12 16.95 256.73-.53077 25.807-25.791 44.523-50.44 44.285-39.531 15.566-75.612 39.269-115.09 54.825-3.9396.71494-8.0244.4741-11.895-.47022zm-130.63-75.4c-25.351-12.915-15.949-57.381 13.322-56.973 33.525-5.6755 46.377 47.772 14.672 58.838-8.9156 2.8941-19.931 3.8529-27.994-1.8651zm492.46-.007c-24.452-12.19-17.336-53.97 10.027-56.442 29.015-7.797 48.52 32.597 27.319 51.87-9.4484 9.7759-25.887 11.853-37.345 4.5718zm-454.17-120.18c-26.439-8.1843-26.972-50.339-.27122-58.498 24.151-10.388 50.518 17.635 39.201 41.178-5.775 15.228-23.921 22.19-38.93 17.32zm426.25-.0766c-28.964-8.7631-25.578-55.568 4.7336-59.988 33.066-8.0182 51.338 42.983 20.751 57.844-7.6445 4.4324-17.202 5.1973-25.485 2.1434zm-335.99-90.13c-26.585-7.7215-27.423-49.894-.8416-58.185 25.784-11.674 53.553 20.936 37.845 44.628-7.0416 12.471-23.567 18.513-37.004 13.557zm246.04.0126c-34.958-10.544-20.275-67.262 15.1-59.903 28.709 2.701 35.853 46.364 9.4729 58.033-7.5024 3.9244-16.556 4.5012-24.573 1.8703z"/>
 <circle r="358.76" style="stroke:#31343d;stroke-width:69.139;fill:none" cx="393.33" cy="393.33"/>
</svg>
