<svg fill="#4a4d57" xmlns="http://www.w3.org/2000/svg" height="819.38" viewBox="0 0 819.0343 819.38068" width="819.03">
 <path d="m395.25 819.19c-128.18-3.76-249.74-70.49-323.61-177.62-32.642-47.35-56.329-104.91-65.679-159.62-8.1444-47.649-7.9342-101.4.578-147.73 28.704-156.23 148.2-283.55 302.46-322.27 34.73-8.7184 61.94-11.95 100.62-11.95 38.682 0 65.897 3.2316 100.62 11.949 97.51 24.476 184.02 85.55 239.93 169.38 38.764 58.121 60.444 118.86 67.599 189.38 1.9475 19.193 1.5642 64.372-.71351 84.1-9.1055 78.863-38.53 149.74-87.82 211.53-12.356 15.489-41.376 45.023-56.915 57.922-78.159 64.884-174.66 97.951-277.08 94.944zm35.756-94.137c79.002-6.2322 146.57-37.173 201.81-92.413 33.816-33.816 57.169-70.038 73.379-113.82 43.361-117.1 13.468-248.89-76.134-335.65-25.824-25.006-48.807-41.254-80.436-56.862-32.695-16.134-59.681-24.62-95.806-30.127-25.332-3.8614-63.057-3.8614-88.389 0-36.036 5.4929-62.878 13.927-95.806 30.105-62.592 30.752-112.1 80.271-143.14 143.16-16.161 32.749-24.675 59.852-30.098 95.806-3.8317 25.407-3.8388 63.2-.0166 88.389 5.4705 36.051 13.969 63.087 30.114 95.806 30.298 61.398 79.444 111.17 140.01 141.79 37.954 19.188 77.146 30.257 119.38 33.713 18.324 1.4997 27.153 1.5195 45.131.10125zm-35.49-41.9c-10.66-5.39-16.52-15.13-16.52-27.45 0-17.937 12.691-30.625 30.633-30.625 12.991 0 21.969 5.4267 27.742 16.77 2.667 5.2402 3.0607 7.4665 2.6741 15.122-.87469 17.321-11.85 28.32-29.052 29.113-7.6178.35124-9.8042-.0625-15.469-2.9271zm-120.17-31.47c-10.976-3.8766-20.107-17.132-20.107-29.187 0-7.0171 4.1289-16.348 9.6983-21.918 20.413-20.413 55.395-3.4908 52.418 25.356-2.0908 20.258-22.368 32.686-42.01 25.749zm247.08.36295c-25.254-9.0124-28.032-44.86-4.3917-56.667 23.066-11.52 48.703 6.2327 45.394 31.434-2.5366 19.319-22.738 31.751-41.003 25.233zm-334.24-89.33c-5.6692-1.4554-12.531-6-16.075-10.646-11.764-15.424-7.5847-36.831 9.1071-46.643 8.2003-4.8204 20.589-4.9341 29.659-.27213 21.65 11.128 21.934 43.58.47757 54.622-6.2198 3.2008-16.882 4.5535-23.169 2.9394zm425.66-.60502c-11.004-3.9324-16.858-9.6772-20.354-19.975-2.502-7.3695-2.5098-11.123-.0406-19.438 5.4094-18.215 28.238-26.827 45.029-16.987 23.221 13.608 19.18 48.626-6.504 56.356-7.1715 2.1583-12.179 2.1704-18.13.0439zm-335.48-50.69c-19.725-4.802-29.634-27.523-19.767-45.329 3.9919-7.2042 2.6148-6.2233 76.68-54.614 15.141-9.8927 27.8-18.424 28.131-18.959.33049-.53474 3.9747-53.92 8.0982-118.63 7.8941-123.89 7.6915-122.04 14.362-130.79 10.486-13.748 37.007-13.748 47.493 0 6.7643 8.8684 6.4832 6.2488 15.07 140.45 4.4747 69.939 7.7906 129.79 7.3685 133-1.1277 8.582-6.9346 19.6-13.854 26.286-8.1713 7.8956-17.923 12.191-30.119 13.268-9.543.84202-10.61 1.3125-61.499 27.107-28.483 14.438-53.796 26.91-56.25 27.716-5.0575 1.662-10.234 1.8234-15.712.48972zm-130.63-75.4c-4.565-2.7374-8.0126-6.0692-10.57-10.214-3.4136-5.5338-3.7949-7.1766-3.7949-16.348 0-9.1675.38161-10.813 3.783-16.315 5.3341-8.6277 13.481-13.432 23.904-14.096 19.351-1.2322 32.938 11.313 32.938 30.411 0 18.398-12.354 30.625-30.943 30.625-7.4148 0-9.437-.53635-15.317-4.0625zm492.46-.007c-4.9409-2.9525-7.9297-5.9413-10.882-10.882-3.5705-5.9755-4.0705-7.9006-4.0705-15.673 0-7.7735.49841-9.6918 4.0625-15.635 2.7374-4.565 6.0692-8.0126 10.214-10.57 5.5338-3.4136 7.1766-3.7949 16.348-3.7949 9.1675 0 10.813.38161 16.315 3.783 3.7927 2.3448 7.5572 6.1093 9.902 9.902 3.4014 5.5017 3.783 7.1475 3.783 16.315 0 9.1715-.38134 10.814-3.7949 16.348-2.557 4.1453-6.0048 7.4771-10.57 10.214-5.9436 3.5641-7.8619 4.0625-15.635 4.0625-7.7722 0-9.6973-.49998-15.672-4.0705zm-454.17-120.18c-21.216-7.8988-27.357-35.484-11.442-51.399 13.027-13.027 35.216-11.706 46.257 2.754 11.446 14.99 7.3418 36.68-8.7214 46.093-7.0412 4.1264-18.781 5.2746-26.094 2.5521zm426.25-.0766c-21.234-7.569-27.342-35.16-11.329-51.173 5.7282-5.7283 14.37-9.4922 21.795-9.4922 12.623 0 25.379 9.2183 29.365 21.221 8.2092 24.716-15.442 48.137-39.831 39.444zm-335.99-90.13c-8.3288-2.5635-16.578-10.939-19.083-19.377-2.4584-8.2784-2.4592-11.529-.005-19.794 5.4094-18.215 28.238-26.827 45.029-16.987 23.221 13.608 19.18 48.626-6.504 56.356-7.2274 2.1751-11.879 2.1276-19.437-.19868zm246.04.0126c-11.666-3.7258-20.838-16.897-20.838-29.923 0-6.97 3.8989-15.836 9.3706-21.307 17.185-17.185 46.681-8.6551 51.982 15.033 5.3271 23.804-16.964 43.72-40.515 36.198z"/>
</svg>
